PathFileType	4	(X/Y/Z)	./resultDataOpenSim/trcMotMarkerGrf/sub10/qtm-14-03.trc
DataRate	CameraRate	NumFrames	NumMarkers	Units	OrigDataRate	OrigDataStartFrame	OrigNumFrames
250.000000	250.000000	10	24	m	250.000000	424	484
Frame#	Time	L.Toe.Tip			R.Toe.Tip			L.Ankle.Lat			R.Ankle.Lat			L.Ankle.Med			R.Ankle.Med			L.Heel			R.Heel			L.Knee.Lat			R.Knee.Lat			L.Knee.Med			R.Knee.Med			L.Thigh.Upper			R.Thigh.Upper			L.ASIS			R.ASIS			V.Sacral			L.Acromium			R.Acromium			C7			L.Elbow			R.Elbow			L.Wrist.Lat			R.Wrist.Lat
		X1	Y1	Z1	X2	Y2	Z2	X3	Y3	Z3	X4	Y4	Z4	X5	Y5	Z5	X6	Y6	Z6	X7	Y7	Z7	X8	Y8	Z8	X9	Y9	Z9	X10	Y10	Z10	X11	Y11	Z11	X12	Y12	Z12	X13	Y13	Z13	X14	Y14	Z14	X15	Y15	Z15	X16	Y16	Z16	X17	Y17	Z17	X18	Y18	Z18	X19	Y19	Z19	X20	Y20	Z20	X21	Y21	Z21	X22	Y22	Z22	X23	Y23	Z23	X24	Y24	Z24

424	1.692	1.574838	0.10872042	-0.13155812	0.89035583	0.038119042	0.051316859	1.4454873	0.07605899	-0.15540957	0.76680275	0.1037561	0.086722591	1.4501531	0.10490848	-0.075984621	0.79604543	0.11761479	0.0025854219	1.4019714	0.022117671	-0.10924761	0.71059923	0.098369788	0.039554231	1.3154476	0.44397442	-0.18055604	0.98775368	0.43877834	0.10981371	1.3372708	0.42662035	-0.059405454	1.0134614	0.43367653	-0.015892105	1.1932849	0.80905196	-0.22798772	1.0831155	0.84304968	0.14773985	1.2287091	0.91911114	-0.1453656	1.1792	0.92969365	0.098603322	1.0125916	0.93266841	-0.078266448	1.1777327	1.3980684	-0.18292405	1.1476089	1.3837152	0.13264245	1.0868173	1.4241506	-0.036632186	1.0325841	1.1032436	-0.3250028	1.0359627	1.0468817	0.20948573	1.237833	0.98465129	-0.41762895	1.2021068	0.96019703	0.37407543
425	1.696	1.5794758	0.10692158	-0.13188016	0.89059635	0.038068069	0.051391482	1.4499267	0.074508429	-0.15572706	0.7680795	0.10531297	0.087114309	1.4547755	0.10318003	-0.076231746	0.7974485	0.11889779	0.0030146444	1.4056881	0.02131831	-0.10971116	0.71184667	0.10060439	0.039937345	1.3237049	0.44381677	-0.18070452	0.99167391	0.43854601	0.10985323	1.3446294	0.42641527	-0.059809899	1.0177053	0.43312681	-0.015796333	1.1999426	0.80818799	-0.22853767	1.0889419	0.84222972	0.14724446	1.2350505	0.91794065	-0.14563535	1.1852436	0.92870219	0.098190911	1.0189546	0.93122189	-0.079542034	1.1826552	1.3970767	-0.1843371	1.1528898	1.3829026	0.13135075	1.0918929	1.4230722	-0.037921924	1.0372646	1.1015598	-0.32490843	1.0410311	1.046122	0.20884575	1.2419536	0.98207526	-0.41738816	1.2086047	0.95945029	0.37250348
426	1.7	1.5840559	0.10479448	-0.13244641	0.89083066	0.037991842	0.051499273	1.454056	0.072827296	-0.1561131	0.76936254	0.10690864	0.087513369	1.4590338	0.10131905	-0.07641276	0.79894792	0.12020724	0.0034761961	1.4086728	0.020944349	-0.11033349	0.71318613	0.10292594	0.040330535	1.3320356	0.44363657	-0.18087895	0.99577008	0.43826563	0.10989789	1.3522042	0.42625199	-0.060226257	1.0221393	0.43249535	-0.015667113	1.2065346	0.80735585	-0.22908836	1.0948515	0.8413656	0.1467536	1.2414325	0.91677787	-0.14593542	1.1913535	0.92766557	0.097742806	1.025332	0.92982302	-0.080655458	1.1876012	1.3960801	-0.18576106	1.1581835	1.3821054	0.13002645	1.0969953	1.4219816	-0.039234051	1.0420081	1.0998659	-0.32479001	1.0460902	1.0453341	0.20809975	1.2461279	0.97951854	-0.41717284	1.2150212	0.95873828	0.3709828
427	1.704	1.5884597	0.10177061	-0.13347617	0.89108278	0.0379067	0.051641739	1.4578719	0.071085636	-0.15655634	0.77062427	0.10853968	0.087910682	1.4629933	0.099406186	-0.076471275	0.80055925	0.12155308	0.0039655521	1.4108996	0.020876783	-0.11080152	0.71463627	0.1053371	0.040719908	1.3403686	0.44341376	-0.18108906	1.0000628	0.43793584	0.10994808	1.3599582	0.42609128	-0.060648283	1.0267655	0.43176974	-0.015510871	1.2130688	0.80653777	-0.2296435	1.1008343	0.84045458	0.1462604	1.2478429	0.91562503	-0.14627176	1.1975373	0.92659181	0.097261324	1.031634	0.92861059	-0.081608963	1.1925727	1.3950827	-0.18720042	1.1634877	1.3813208	0.12868049	1.1021051	1.4208835	-0.040559471	1.0468172	1.0981576	-0.32462944	1.0513337	1.0445528	0.20733768	1.2503567	0.97697673	-0.41697614	1.2213425	0.95805759	0.36951703
428	1.708	1.5924663	0.097308861	-0.13491764	0.89137334	0.037832008	0.051802692	1.4612671	0.069425635	-0.15693507	0.77193863	0.11021025	0.088307032	1.4667096	0.097581338	-0.076361437	0.80229662	0.12294257	0.0044787658	1.4124076	0.021080204	-0.1108799	0.7162116	0.10783775	0.04109835	1.3486199	0.44315176	-0.18133107	1.0045408	0.43755456	0.11000431	1.3678111	0.42588844	-0.061077573	1.0315931	0.43094192	-0.015337601	1.2195461	0.80571723	-0.23020938	1.1068805	0.83950174	0.14575647	1.2542445	0.91449511	-0.14664249	1.2038018	0.92549071	0.096745408	1.0377981	0.9275875	-0.082396442	1.1975715	1.3940881	-0.18866455	1.1688051	1.3805471	0.12731552	1.1072141	1.41979	-0.041901404	1.0516841	1.0964434	-0.32446391	1.0568289	1.0437905	0.20659492	1.25464	0.97445183	-0.41680109	1.2275813	0.95740918	0.36810794
429	1.712	1.5959501	0.091348379	-0.13636616	0.89170913	0.037781698	0.051953228	1.4641063	0.068020559	-0.15709491	0.77343798	0.11193177	0.088707323	1.470248	0.096009977	-0.076090788	0.80417364	0.12437499	0.0050126513	1.4133453	0.021618508	-0.11058009	0.71792168	0.11042912	0.0414651	1.3567273	0.44287872	-0.1815897	1.0091784	0.43713352	0.11006767	1.37567	0.42560865	-0.061507277	1.0366348	0.43000739	-0.015152487	1.2259656	0.80489032	-0.23079448	1.1129905	0.83851661	0.14523491	1.2605893	0.91341159	-0.14703996	1.21015	0.92435923	0.09619242	1.0437422	0.92675331	-0.083002007	1.2026017	1.3931035	-0.19015612	1.1741414	1.3797901	0.12592995	1.1123204	1.4187212	-0.043270003	1.0565968	1.0947399	-0.32436343	1.0624887	1.0430436	0.20584308	1.2589814	0.97194574	-0.41665197	1.2337576	0.95678604	0.36674887
430	1.716	1.5990568	0.084530833	-0.13735593	0.8920873	0.037755533	0.052074959	1.4663866	0.066988302	-0.15701105	0.77518195	0.1137092	0.089113939	1.4736945	0.094804284	-0.075730888	0.80620597	0.12584297	0.0055649739	1.4139603	0.022455411	-0.11008249	0.71977606	0.11311827	0.041822038	1.3646711	0.4426543	-0.18184082	1.0139623	0.43668598	0.11013761	1.3834791	0.42526055	-0.061911769	1.0419026	0.42896194	-0.01495954	1.2323336	0.8040686	-0.23140918	1.1191742	0.83751165	0.14469287	1.2668397	0.91239345	-0.14746622	1.216577	0.92318522	0.095599755	1.0493839	0.92616144	-0.083425388	1.2076686	1.3921476	-0.19167636	1.1795003	1.3790659	0.12452663	1.1174204	1.4176985	-0.044674969	1.0615533	1.0930572	-0.32435734	1.0682025	1.0423259	0.20505046	1.2633837	0.96945181	-0.41652588	1.2398811	0.95617547	0.36542895
431	1.72	1.6019767	0.077977418	-0.13776942	0.89250403	0.037738635	0.052173444	1.4682644	0.06632974	-0.15678512	0.77710837	0.11555075	0.089538969	1.4770935	0.09396601	-0.075363724	0.80841451	0.12734175	0.006134313	1.4145056	0.023432889	-0.10958475	0.72179493	0.1159157	0.04217154	1.3724798	0.44256437	-0.18206234	1.01891	0.43620524	0.11019516	1.3912547	0.42492589	-0.062263941	1.0474101	0.42780085	-0.014766394	1.2386577	0.80328426	-0.23206347	1.1254498	0.83649232	0.14413435	1.272978	0.9114449	-0.14794083	1.2230745	0.92196637	0.094958817	1.0548054	0.9257856	-0.08371944	1.2127714	1.3912497	-0.19323403	1.1848851	1.3783908	0.1231118	1.1225124	1.4167337	-0.046125264	1.0665671	1.0913952	-0.32441942	1.0739067	1.0416677	0.20420818	1.2678391	0.96696196	-0.4164184	1.2459462	0.95557173	0.36413957
432	1.724	1.6046614	0.072696627	-0.13784657	0.89296076	0.037715036	0.052269495	1.4699455	0.065958417	-0.15651653	0.77911665	0.1174795	0.089999621	1.480343	0.093394376	-0.075016802	0.81082022	0.12887525	0.0067255564	1.4151514	0.024408078	-0.10920826	0.72401399	0.1188286	0.042513101	1.3802283	0.44269145	-0.18225655	1.0240642	0.43567695	0.11021229	1.3990566	0.42475367	-0.062553398	1.0531687	0.42652558	-0.014577855	1.2449396	0.80259628	-0.23275915	1.1318775	0.83543063	0.14357611	1.2790022	0.91055788	-0.14849096	1.2296389	0.92072001	0.094256572	1.0604086	0.92537681	-0.084028893	1.2179056	1.3904358	-0.19483994	1.1902948	1.3777732	0.1216925	1.127609	1.4158289	-0.047633206	1.0716575	1.0897504	-0.32451339	1.0795857	1.04109	0.20332761	1.2723348	0.96447839	-0.41632847	1.2519351	0.95498292	0.36287522
433	1.728	1.6070091	0.069019089	-0.13780917	0.89345739	0.037677051	0.052378536	1.4715917	0.065786238	-0.15625179	0.78118287	0.11951634	0.090501188	1.483234	0.092966202	-0.07467388	0.81343129	0.13045099	0.0073640375	1.4159564	0.025326296	-0.10898555	0.72646979	0.12185816	0.042837027	1.3880163	0.44308694	-0.18246195	1.0294508	0.43510964	0.11018332	1.4069133	0.42490722	-0.06278081	1.0591787	0.42515041	-0.014391618	1.2511802	0.80208247	-0.23348802	1.1386118	0.83425037	0.14305429	1.2849137	0.90972449	-0.14913455	1.2362659	0.91947284	0.093485721	1.0668609	0.92453968	-0.084630267	1.2230697	1.3897051	-0.1964885	1.1957312	1.3772247	0.12027435	1.1327408	1.4149936	-0.049205541	1.0768354	1.0881228	-0.32462003	1.0852567	1.0405925	0.20242366	1.276866	0.96201229	-0.41625522	1.2578316	0.95441869	0.36163267
